HIERARCHY
ROOT Hips
{
  OFFSET 0.0000 0.0000 0.0000
  CHANNELS 6 Xposition Yposition Zposition Zrotation Xrotation Yrotation
  JOINT Chest
  {
    OFFSET -0.1728 10.2870 0.1254
    CHANNELS 3 Zrotation Xrotation Yrotation
    JOINT Chest2
    {
      OFFSET 0.3229 15.8173 -2.6440
      CHANNELS 3 Zrotation Xrotation Yrotation
      JOINT LeftCollar
      {
        OFFSET -0.0683 16.8828 0.2989
        CHANNELS 3 Zrotation Xrotation Yrotation
        JOINT LeftShoulder
        {
          OFFSET 16.0110 -3.0750 2.0528
          CHANNELS 3 Zrotation Xrotation Yrotation
          JOINT LeftElbow
          {
            OFFSET 2.6153 -25.4187 1.7231
            CHANNELS 3 Zrotation Xrotation Yrotation
            JOINT LeftWrist
            {
              OFFSET 2.3595 -22.4741 1.0488
              CHANNELS 3 Zrotation Xrotation Yrotation
              End Site
              {
                  OFFSET 1.4871 -13.9919 1.1523
              }
            }
          }
        }
      }
      JOINT RightCollar
      {
        OFFSET -0.0683 16.8828 0.2989
        CHANNELS 3 Zrotation Xrotation Yrotation
        JOINT RightShoulder
        {
          OFFSET -16.3743 -2.4390 2.0841
          CHANNELS 3 Zrotation Xrotation Yrotation
          JOINT RightElbow
          {
            OFFSET -2.6865 -25.0857 1.2959
            CHANNELS 3 Zrotation Xrotation Yrotation
            JOINT RightWrist
            {
              OFFSET -2.3810 -22.8348 1.0329
              CHANNELS 3 Zrotation Xrotation Yrotation
              End Site
              {
                  OFFSET -1.4652 -14.7234 1.0705
              }
            }
          }
        }
      }
      JOINT Neck
      {
        OFFSET -0.0683 16.8828 0.2989
        CHANNELS 3 Zrotation Xrotation Yrotation
        JOINT Head
        {
          OFFSET 0.1300 11.4121 4.7143
          CHANNELS 3 Zrotation Xrotation Yrotation
          End Site
          {
              OFFSET 0.0452 18.0438 0.3379
          }
        }
      }
    }
  }
  JOINT LeftHip
  {
    OFFSET 9.3186 -0.0408 3.5432
    CHANNELS 3 Zrotation Xrotation Yrotation
    JOINT LeftKnee
    {
      OFFSET -0.5435 -48.8357 0.3144
      CHANNELS 3 Zrotation Xrotation Yrotation
      JOINT LeftAnkle
      {
        OFFSET 0.2027 -38.4920 -4.2946
        CHANNELS 3 Zrotation Xrotation Yrotation
        End Site
        {
            OFFSET 1.1879 -7.4484 17.8063
        }
      }
    }
  }
  JOINT RightHip
  {
    OFFSET -10.0712 -0.0749 3.1483
    CHANNELS 3 Zrotation Xrotation Yrotation
    JOINT RightKnee
    {
      OFFSET 0.3157 -48.5179 0.1055
      CHANNELS 3 Zrotation Xrotation Yrotation
      JOINT RightAnkle
      {
        OFFSET -1.1248 -38.4399 -3.4305
        CHANNELS 3 Zrotation Xrotation Yrotation
        End Site
        {
            OFFSET -1.3336 -7.3741 17.3830
        }
      }
    }
  }
}
MOTION
Frames:	30
Frame Time:	0.041667
-3.3430 95.5959 36.1352 2.18 20.90 11.04 -4.41 11.46 3.30 -4.38 11.43 3.32 -0.18 -0.70 0.26 28.90 -8.31 -55.73 9.10 -28.83 -2.56 -3.27 6.69 20.23 -0.17 -0.79 -0.22 -50.40 -26.36 42.18 -12.79 -38.38 3.60 -64.52 48.72 4.18 -1.39 -8.97 -3.67 -0.75 -1.67 -3.59 -1.51 -32.78 -11.75 0.34 20.62 0.25 -5.87 -5.56 -1.63 -5.93 -23.89 10.10 0.29 30.97 -0.78 0.99 -17.90 -6.18 
-3.0534 95.6152 37.0894 2.52 21.07 11.27 -4.46 11.03 3.28 -4.43 10.99 3.30 -0.18 -0.70 0.26 28.85 -7.93 -56.21 9.10 -28.78 -2.56 -3.43 6.97 19.36 -0.27 -0.79 -0.35 -50.76 -26.15 43.83 -12.81 -38.44 3.58 -63.94 49.28 4.12 -1.14 -8.58 -4.04 -0.45 -1.28 -3.96 -2.12 -32.17 -11.89 0.37 20.47 0.22 -5.67 -5.91 -1.88 -6.39 -23.56 9.88 0.32 31.54 -0.82 0.87 -17.81 -6.56 
-2.8139 95.6544 38.1037 2.58 21.01 11.75 -4.33 10.73 3.24 -4.30 10.70 3.26 -0.18 -0.70 0.26 28.69 -7.75 -56.13 9.09 -29.06 -2.58 -3.31 6.85 19.16 -0.39 -0.77 -0.49 -50.78 -25.54 45.31 -12.80 -38.68 3.58 -64.17 49.71 4.38 -1.05 -8.38 -4.31 -0.33 -1.08 -4.23 -2.43 -31.39 -12.10 0.40 20.31 0.20 -5.48 -6.23 -2.20 -6.66 -22.96 9.21 0.35 31.96 -0.86 0.72 -17.36 -6.45 
-2.6267 95.7036 39.1140 2.40 20.86 12.26 -4.12 10.51 3.19 -4.09 10.48 3.21 -0.18 -0.70 0.26 28.48 -7.70 -55.37 9.07 -29.68 -2.61 -2.86 6.56 19.52 -0.50 -0.73 -0.63 -50.51 -24.77 46.46 -12.71 -39.04 3.63 -64.97 49.97 4.91 -1.13 -8.34 -4.42 -0.40 -1.05 -4.34 -2.43 -30.60 -12.19 0.41 20.19 0.19 -5.32 -6.57 -2.58 -6.72 -22.74 8.36 0.38 33.05 -0.92 0.60 -16.30 -5.65 
-2.4860 95.7429 40.0430 2.11 20.79 12.55 -3.91 10.30 3.13 -3.88 10.27 3.15 -0.18 -0.70 0.26 28.32 -7.70 -54.05 9.03 -30.62 -2.66 -2.09 6.44 19.83 -0.57 -0.68 -0.74 -50.15 -24.21 47.37 -12.58 -39.42 3.71 -65.87 50.13 5.48 -1.35 -8.39 -4.32 -0.63 -1.10 -4.23 -2.14 -30.07 -11.93 0.43 20.26 0.18 -5.21 -6.97 -3.02 -6.71 -23.74 7.35 0.47 35.96 -1.06 0.51 -14.28 -3.96 
-2.4003 95.7515 40.8505 1.78 20.91 12.44 -3.73 10.10 3.06 -3.70 10.07 3.08 -0.18 -0.70 0.26 28.28 -7.74 -52.37 8.98 -31.92 -2.72 -1.05 6.67 19.56 -0.68 -0.64 -0.89 -49.98 -24.10 48.09 -12.50 -39.81 3.75 -66.26 50.21 5.68 -1.65 -8.44 -4.03 -0.97 -1.14 -3.95 -1.60 -29.90 -11.14 0.45 20.62 0.17 -5.14 -7.47 -3.51 -6.74 -26.33 6.08 0.63 41.15 -1.32 0.41 -11.16 -1.62 
-2.3787 95.7297 41.5575 1.48 21.18 11.88 -3.57 9.89 2.98 -3.53 9.86 3.00 -0.18 -0.70 0.26 28.36 -7.84 -50.57 8.91 -33.53 -2.81 0.25 7.18 18.59 -0.81 -0.61 -1.07 -50.05 -24.50 48.66 -12.48 -40.17 3.75 -65.97 50.26 5.42 -1.95 -8.42 -3.58 -1.32 -1.12 -3.50 -0.85 -29.96 -9.88 0.48 21.18 0.12 -5.14 -8.10 -3.96 -6.95 -30.25 4.46 0.90 47.59 -1.70 0.25 -7.59 0.42 
-2.4318 95.7124 42.2294 1.27 21.53 10.98 -3.41 9.68 2.91 -3.38 9.65 2.93 -0.18 -0.70 0.26 28.47 -8.00 -48.62 8.82 -35.45 -2.92 1.73 7.85 17.11 -0.94 -0.59 -1.25 -50.27 -25.15 48.97 -12.46 -40.58 3.75 -65.32 50.27 4.96 -2.19 -8.29 -3.01 -1.63 -0.98 -2.94 0.01 -30.06 -8.45 0.52 21.67 0.05 -5.21 -8.70 -4.20 -7.37 -34.70 2.62 1.23 53.16 -2.11 0.07 -4.93 1.01 
-2.6045 95.7379 42.9370 1.08 21.91 9.94 -3.23 9.46 2.87 -3.20 9.43 2.89 -0.18 -0.70 0.26 28.48 -8.15 -46.49 8.71 -37.66 -3.06 3.23 8.57 15.37 -0.98 -0.57 -1.32 -50.44 -25.76 49.02 -12.35 -41.12 3.82 -65.02 50.15 4.98 -2.38 -8.09 -2.41 -1.89 -0.78 -2.34 0.96 -30.05 -7.12 0.55 21.94 -0.04 -5.35 -9.14 -4.12 -7.85 -38.77 0.98 1.39 55.46 -2.31 0.02 -4.26 -0.08 
-2.9697 95.7955 43.7403 0.86 22.29 9.05 -3.01 9.21 2.83 -2.98 9.18 2.85 -0.18 -0.70 0.26 28.38 -8.18 -44.24 8.58 -40.10 -3.22 4.60 9.31 13.53 -1.02 -0.54 -1.39 -50.51 -26.05 48.81 -12.22 -42.03 3.89 -65.08 49.71 5.52 -2.55 -7.87 -1.87 -2.13 -0.56 -1.81 2.00 -29.88 -6.15 0.56 21.93 -0.09 -5.59 -9.40 -3.86 -8.19 -41.76 0.09 1.21 52.87 -2.08 0.29 -5.16 -1.88 
-3.5787 95.8126 44.6904 0.58 22.61 8.55 -2.74 8.95 2.76 -2.71 8.92 2.78 -0.18 -0.70 0.26 28.27 -8.12 -42.05 8.43 -42.64 -3.40 5.68 9.96 11.78 -1.10 -0.51 -1.51 -50.49 -25.92 48.34 -12.09 -43.27 3.95 -65.21 48.94 6.29 -2.68 -7.67 -1.53 -2.30 -0.35 -1.47 3.06 -29.60 -5.65 0.53 21.87 -0.12 -5.98 -9.61 -3.60 -8.23 -43.36 0.31 0.84 45.88 -1.57 0.83 -6.41 -3.38 
-4.4372 95.7049 45.8102 0.25 22.77 8.67 -2.44 8.71 2.60 -2.41 8.68 2.62 -0.18 -0.70 0.26 28.23 -8.01 -40.15 8.26 -45.04 -3.59 6.46 10.44 10.33 -1.30 -0.45 -1.77 -50.57 -25.45 47.67 -11.95 -44.70 4.02 -64.78 48.06 6.63 -2.77 -7.52 -1.46 -2.40 -0.21 -1.40 4.05 -29.23 -5.74 0.48 21.96 -0.13 -6.58 -9.91 -3.49 -8.10 -43.69 1.38 0.55 37.52 -1.10 1.53 -7.17 -4.29 
-5.5199 95.4584 47.0728 -0.11 22.65 9.47 -2.11 8.58 2.28 -2.07 8.55 2.30 -0.18 -0.70 0.26 28.25 -7.92 -38.62 8.12 -47.01 -3.76 7.04 10.75 9.27 -1.47 -0.36 -2.03 -50.77 -24.86 46.98 -11.70 -46.04 4.17 -63.87 47.42 6.39 -2.80 -7.43 -1.56 -2.42 -0.11 -1.50 4.89 -28.76 -6.48 0.45 22.35 -0.16 -7.26 -10.27 -3.47 -7.88 -43.30 2.39 0.42 31.68 -0.82 2.30 -7.67 -4.83 
-6.7759 95.1458 48.4212 -0.52 22.30 10.70 -1.77 8.51 1.91 -1.73 8.48 1.94 -0.18 -0.70 0.26 28.18 -7.89 -37.55 8.01 -48.37 -3.88 7.58 11.01 8.46 -1.70 -0.27 -2.33 -51.28 -24.23 46.38 -11.44 -47.19 4.33 -62.06 46.99 5.20 -2.81 -7.33 -1.68 -2.41 -0.02 -1.62 5.62 -28.22 -7.66 0.42 22.94 -0.14 -7.52 -10.61 -3.35 -7.55 -42.73 2.52 0.39 30.03 -0.71 2.90 -8.42 -5.05 
-8.1181 94.8720 49.8032 -0.95 21.81 12.11 -1.43 8.48 1.57 -1.40 8.46 1.59 -0.18 -0.70 0.26 27.95 -7.85 -36.90 7.95 -49.07 -3.95 8.17 11.29 7.53 -1.83 -0.20 -2.50 -51.82 -23.60 46.09 -11.16 -48.10 4.52 -60.42 46.76 4.01 -2.81 -7.20 -1.78 -2.40 0.11 -1.72 6.34 -27.56 -8.99 0.39 23.47 -0.09 -7.19 -10.71 -3.04 -6.94 -42.20 1.76 0.37 31.30 -0.74 2.88 -9.53 -5.05 
-9.4422 94.7079 51.1882 -1.30 21.30 13.40 -1.14 8.50 1.27 -1.10 8.47 1.30 -0.18 -0.70 0.26 27.56 -7.69 -36.71 7.94 -49.14 -3.95 8.90 11.48 6.10 -1.86 -0.16 -2.51 -52.22 -22.87 46.18 -10.91 -49.10 4.70 -59.77 46.54 3.63 -2.82 -7.05 -1.84 -2.40 0.26 -1.78 7.03 -26.82 -10.19 0.35 23.77 0.02 -6.54 -10.36 -2.66 -6.05 -41.58 0.92 0.34 33.23 -0.82 2.16 -10.70 -5.21 
-10.6743 94.6520 52.5568 -1.45 20.80 14.42 -0.91 8.54 1.03 -0.88 8.51 1.06 -0.18 -0.70 0.26 27.17 -7.33 -37.00 7.99 -48.64 -3.91 9.76 11.39 4.28 -1.89 -0.16 -2.47 -52.40 -22.00 46.59 -10.74 -50.46 4.83 -60.29 46.13 4.34 -2.84 -6.91 -1.86 -2.42 0.40 -1.80 7.63 -26.01 -11.13 0.31 23.91 0.13 -5.88 -9.52 -2.38 -5.03 -40.76 0.69 0.28 34.52 -0.89 1.21 -11.69 -5.72 
-11.7873 94.6522 53.8876 -1.39 20.32 15.10 -0.82 8.62 0.87 -0.79 8.59 0.90 -0.18 -0.70 0.26 26.88 -6.83 -37.84 8.08 -47.50 -3.80 10.63 10.93 2.78 -1.90 -0.16 -2.40 -52.29 -21.05 47.15 -10.56 -51.89 4.98 -61.58 45.53 5.68 -2.86 -6.81 -1.83 -2.44 0.50 -1.77 8.15 -25.16 -11.76 0.27 24.01 0.22 -5.27 -8.36 -2.31 -4.08 -39.80 0.95 0.21 35.14 -0.93 0.29 -12.43 -6.38 
-12.7813 94.6558 55.1614 -1.13 19.89 15.39 -0.89 8.73 0.80 -0.85 8.70 0.83 -0.18 -0.70 0.26 26.79 -6.35 -39.29 8.23 -45.59 -3.63 11.23 10.23 2.43 -1.91 -0.13 -2.36 -51.96 -20.24 47.69 -10.38 -52.88 5.14 -62.59 44.91 6.47 -2.88 -6.74 -1.75 -2.47 0.57 -1.69 8.57 -24.30 -12.06 0.23 24.14 0.32 -4.66 -7.11 -2.51 -3.30 -38.83 1.23 0.13 35.46 -0.96 -0.51 -13.03 -6.75 
-13.6713 94.6382 56.3735 -0.74 19.50 15.33 -1.02 8.86 0.80 -0.99 8.83 0.82 -0.18 -0.70 0.26 26.84 -6.03 -41.26 8.41 -42.96 -3.42 11.22 9.53 3.43 -1.92 -0.10 -2.35 -51.57 -19.63 48.07 -10.26 -53.19 5.25 -62.62 44.48 6.07 -2.88 -6.68 -1.63 -2.49 0.63 -1.57 8.95 -23.42 -12.07 0.19 24.28 0.41 -4.06 -5.86 -2.89 -2.63 -37.89 1.35 0.07 35.74 -1.01 -1.27 -13.58 -6.71 
-14.4800 94.6008 57.5348 -0.30 19.13 15.03 -1.18 8.99 0.83 -1.14 8.96 0.86 -0.18 -0.70 0.26 26.94 -5.88 -43.45 8.59 -39.97 -3.21 10.48 9.00 5.19 -1.92 -0.09 -2.32 -51.28 -19.16 48.25 -10.20 -53.17 5.30 -61.91 44.25 5.02 -2.90 -6.62 -1.49 -2.53 0.69 -1.44 9.31 -22.46 -11.86 0.15 24.39 0.51 -3.45 -4.60 -3.29 -2.01 -36.97 1.46 0.03 36.03 -1.09 -2.01 -14.13 -6.52 
-15.2214 94.5578 58.6570 0.17 18.79 14.61 -1.34 9.13 0.89 -1.30 9.10 0.92 -0.18 -0.70 0.26 26.99 -5.76 -45.44 8.74 -37.16 -3.03 9.11 8.69 6.92 -1.91 -0.11 -2.24 -51.03 -18.75 48.33 -10.24 -53.37 5.27 -61.32 44.07 4.44 -2.96 -6.59 -1.33 -2.61 0.73 -1.27 9.62 -21.51 -11.52 0.11 24.48 0.61 -2.85 -3.33 -3.67 -1.38 -36.06 1.79 0.01 36.25 -1.16 -2.70 -14.63 -6.47 
-15.8954 94.5300 59.7430 0.63 18.47 14.17 -1.49 9.30 0.97 -1.46 9.27 1.00 -0.18 -0.70 0.26 26.93 -5.55 -46.95 8.85 -34.89 -2.89 7.43 8.51 8.37 -1.87 -0.16 -2.14 -50.78 -18.28 48.27 -10.26 -54.14 5.23 -61.46 43.77 5.04 -3.07 -6.62 -1.13 -2.74 0.69 -1.07 9.89 -20.75 -11.10 0.07 24.87 0.72 -2.25 -2.00 -4.04 -0.74 -35.15 2.40 -0.00 36.39 -1.22 -3.33 -15.02 -6.62 
-16.5031 94.5394 60.7847 1.08 18.20 13.70 -1.63 9.49 1.07 -1.59 9.46 1.10 -0.18 -0.70 0.26 26.86 -5.27 -48.09 8.92 -33.22 -2.79 5.79 8.26 9.76 -1.86 -0.19 -2.07 -50.42 -17.81 48.09 -10.26 -55.20 5.23 -62.14 43.34 6.39 -3.20 -6.74 -0.91 -2.89 0.57 -0.85 10.08 -20.50 -10.51 0.01 26.12 0.87 -1.68 -0.48 -4.59 -0.12 -34.24 3.16 -0.01 36.40 -1.27 -3.88 -15.25 -6.93 
-17.0481 94.5952 61.7624 1.52 17.99 13.19 -1.77 9.70 1.23 -1.74 9.67 1.25 -0.18 -0.70 0.26 26.85 -5.11 -49.11 8.98 -31.98 -2.73 4.46 7.74 11.31 -1.86 -0.19 -2.06 -50.06 -17.48 47.79 -10.18 -56.02 5.29 -62.60 42.94 7.47 -3.28 -6.91 -0.72 -3.00 0.41 -0.66 10.15 -21.09 -9.64 -0.09 28.79 1.10 -1.09 1.35 -5.32 0.45 -33.36 3.96 -0.04 36.21 -1.30 -4.38 -15.31 -7.28 
-17.5167 94.6828 62.6479 1.98 17.85 12.63 -1.95 9.94 1.49 -1.92 9.91 1.51 -0.18 -0.70 0.26 26.92 -5.18 -50.07 9.01 -31.08 -2.68 3.62 7.01 12.89 -1.89 -0.16 -2.11 -49.91 -17.38 47.33 -10.03 -56.29 5.40 -62.28 42.75 7.50 -3.27 -7.15 -0.64 -3.00 0.17 -0.58 10.12 -22.64 -8.43 -0.24 32.90 1.43 -0.50 3.39 -6.14 0.89 -32.59 4.74 -0.05 35.96 -1.33 -4.81 -15.27 -7.54 
-17.8780 94.7731 63.4210 2.48 17.88 11.96 -2.22 10.20 1.93 -2.19 10.17 1.95 -0.18 -0.70 0.26 27.00 -5.43 -50.71 9.03 -30.64 -2.66 3.27 6.34 14.04 -1.99 -0.09 -2.27 -50.15 -17.49 46.70 -9.87 -56.15 5.52 -61.12 42.72 6.45 -3.13 -7.45 -0.72 -2.85 -0.14 -0.67 10.01 -25.00 -6.85 -0.46 37.70 1.82 0.02 5.03 -6.94 1.17 -32.02 5.48 -0.05 35.73 -1.37 -5.16 -15.23 -7.65 
-18.1088 94.8447 64.0914 3.00 18.01 11.24 -2.54 10.46 2.46 -2.51 10.44 2.48 -0.18 -0.70 0.26 27.02 -5.70 -50.78 9.03 -30.72 -2.66 3.30 5.98 14.46 -2.12 0.01 -2.50 -50.65 -17.69 45.93 -9.68 -55.92 5.67 -59.63 42.68 4.98 -2.96 -7.79 -0.87 -2.66 -0.47 -0.81 9.88 -27.74 -5.04 -0.66 41.71 2.15 0.28 5.54 -7.69 1.25 -31.69 6.13 -0.05 35.63 -1.43 -5.40 -15.23 -7.61 
-18.2077 94.8980 64.6975 3.52 18.17 10.53 -2.88 10.72 2.96 -2.85 10.69 2.98 -0.18 -0.70 0.26 26.99 -5.89 -50.38 9.01 -31.18 -2.68 3.50 5.99 14.16 -2.28 0.12 -2.78 -51.13 -17.86 45.07 -9.42 -55.96 5.88 -58.49 42.46 4.02 -2.78 -8.11 -1.01 -2.47 -0.79 -0.95 9.68 -30.40 -3.30 -0.76 43.45 2.29 0.33 4.70 -8.28 1.18 -31.55 6.69 -0.04 35.75 -1.48 -5.52 -15.22 -7.54 
-18.1797 94.9409 65.2785 4.02 18.34 9.90 -3.21 10.97 3.40 -3.18 10.94 3.42 -0.18 -0.70 0.26 26.97 -6.01 -49.91 8.99 -31.67 -2.71 3.69 6.22 13.37 -2.35 0.23 -2.98 -51.27 -18.00 44.17 -9.08 -56.33 6.16 -58.29 42.10 4.39 -2.62 -8.39 -1.11 -2.29 -1.07 -1.05 9.29 -32.68 -2.02 -0.69 42.09 2.18 0.36 3.00 -8.46 1.06 -31.45 7.19 -0.05 36.01 -1.49 -5.52 -15.21 -7.51 
